# Rhino

mtllib kpf.mtl
usemtl Plaster
v 5.9677619934082031 193.16154479980469 -38.018867492675781
v 5.9677619934082031 248.88037109375 -38.018867492675781
v -13.478129386901855 248.88037109375 -0.8998262882232666
v -13.478129386901855 193.16154479980469 -0.8998262882232666
v -13.478129386901855 193.16154479980469 -0.8998262882232666
v -13.478129386901855 248.88037109375 -0.8998262882232666
v -38.311714172363281 248.88037109375 -14.234053611755371
v -38.311714172363281 193.16154479980469 -14.234053611755371
v -38.311714172363281 193.16154479980469 -14.234053611755371
v -38.311714172363281 248.88037109375 -14.234053611755371
v -17.573040008544922 248.88037109375 -50.821434020996094
v -17.573040008544922 193.16154479980469 -50.821434020996094
v 5.9677619934082031 248.88037109375 -38.018867492675781
v -38.311714172363281 248.88037109375 -14.234053611755371
v -13.478129386901855 248.88037109375 -0.8998262882232666
v -38.311714172363281 248.88037109375 -14.234053611755371
v 5.9677619934082031 248.88037109375 -38.018867492675781
v -17.573040008544922 248.88037109375 -50.821434020996094
v 17.055267333984375 132.1058349609375 -31.988971710205078
v 17.055267333984375 193.16154479980469 -31.988971710205078
v -4.4226102828979492 193.16154479980469 8.711787223815918
v -4.4226102828979492 132.1058349609375 8.711787223815918
v -4.4226102828979492 132.1058349609375 8.711787223815918
v -4.4226102828979492 193.16154479980469 8.711787223815918
v -43.971050262451172 193.16154479980469 -12.523484230041504
v -43.971050262451172 132.1058349609375 -12.523484230041504
v -43.971050262451172 132.1058349609375 -12.523484230041504
v -43.971050262451172 193.16154479980469 -12.523484230041504
v -21.157739639282227 193.16154479980469 -52.770957946777344
v -21.157739639282227 132.1058349609375 -52.770957946777344
v 3.6806590557098389 63.650455474853516 20.644037246704102
v 3.6806590557098389 132.1058349609375 20.644037246704102
v -51.217124938964844 132.1058349609375 -8.8329620361328125
v -51.217124938964844 63.650455474853516 -8.8329620361328125
v -51.217124938964844 63.650455474853516 -8.8329620361328125
v -51.217124938964844 132.1058349609375 -8.8329620361328125
v -25.097454071044922 132.1058349609375 -54.913555145263672
v -25.097454071044922 63.650455474853516 -54.913555145263672
v 14.46125602722168 63.650455474853516 0.96360433101654053
v 28.964292526245117 63.650455474853516 -25.512298583984375
v 28.964292526245117 132.1058349609375 -25.512298583984375
v 3.6806590557098389 63.650455474853516 20.644037246704102
v 14.46125602722168 63.650455474853516 0.96360433101654053
v 3.6806590557098389 132.1058349609375 20.644037246704102
v 28.964292526245117 132.1058349609375 -25.512298583984375
v 3.6806590557098389 132.1058349609375 20.644037246704102
v 14.46125602722168 63.650455474853516 0.96360433101654053
v 14.411722183227539 63.650455474853516 0.93634921312332153
v 28.964292526245117 63.650455474853516 -25.512298583984375
v 14.46125602722168 63.650455474853516 0.96360433101654053
v 12.021327018737793 63.650455474853516 33.958881378173828
v 12.021327018737793 0 33.958881378173828
v 26.524097442626953 0 7.6009359359741211
v 26.524097442626953 63.650455474853516 7.6009359359741211
v 14.46125602722168 63.650455474853516 0.96360433101654053
v 26.524097442626953 63.650455474853516 7.6009359359741211
v 26.524097442626953 0 7.6009359359741211
v 14.411722183227539 0 0.93634921312332153
v 14.411722183227539 63.650455474853516 0.93634921312332153
v 14.46125602722168 63.650455474853516 0.96360433101654053
v 14.411722183227539 0 0.93634921312332153
v 14.411722183227539 63.650455474853516 0.93634921312332153
v 14.411722183227539 0 0.93634921312332153
v 28.964292526245117 0 -25.512298583984375
v 28.964292526245117 63.650455474853516 -25.512298583984375
v -30.662565231323242 63.650455474853516 -57.940116882324219
v -30.662565231323242 0 -57.940116882324219
v -60.638904571533203 0 -5.0555481910705566
v -60.638904571533203 63.650455474853516 -5.0555481910705566
v -60.638904571533203 63.650455474853516 -5.0555481910705566
v -60.638904571533203 0 -5.0555481910705566
v 12.021327018737793 0 33.958881378173828
v 12.021327018737793 63.650455474853516 33.958881378173828
v -30.662565231323242 0 -57.940116882324219
v 14.411722183227539 0 0.93634921312332153
v -60.638904571533203 0 -5.0555481910705566
v 12.021327018737793 0 33.958881378173828
v -60.638904571533203 0 -5.0555481910705566
v 14.411722183227539 0 0.93634921312332153
v 28.964292526245117 0 -25.512298583984375
v 14.411722183227539 0 0.93634921312332153
v -30.662565231323242 0 -57.940116882324219
v 12.021327018737793 0 33.958881378173828
v 14.411722183227539 0 0.93634921312332153
v 26.524097442626953 0 7.6009359359741211
v -30.662565231323242 63.650455474853516 -57.940116882324219
v -60.638904571533203 63.650455474853516 -5.0555481910705566
v -51.217124938964844 63.650455474853516 -8.8329620361328125
v 3.6806590557098389 63.650455474853516 20.644037246704102
v -51.217124938964844 63.650455474853516 -8.8329620361328125
v -60.638904571533203 63.650455474853516 -5.0555481910705566
v -51.217124938964844 63.650455474853516 -8.8329620361328125
v -25.097454071044922 63.650455474853516 -54.913555145263672
v -30.662565231323242 63.650455474853516 -57.940116882324219
v 26.524097442626953 63.650455474853516 7.6009359359741211
v 3.6806590557098389 63.650455474853516 20.644037246704102
v 12.021327018737793 63.650455474853516 33.958881378173828
v -60.638904571533203 63.650455474853516 -5.0555481910705566
v 12.021327018737793 63.650455474853516 33.958881378173828
v 3.6806590557098389 63.650455474853516 20.644037246704102
v 3.6806590557098389 63.650455474853516 20.644037246704102
v 26.524097442626953 63.650455474853516 7.6009359359741211
v 14.46125602722168 63.650455474853516 0.96360433101654053
v 28.964292526245117 132.1058349609375 -25.512298583984375
v -4.4226102828979492 132.1058349609375 8.711787223815918
v 3.6806590557098389 132.1058349609375 20.644037246704102
v -51.217124938964844 132.1058349609375 -8.8329620361328125
v 3.6806590557098389 132.1058349609375 20.644037246704102
v -4.4226102828979492 132.1058349609375 8.711787223815918
v -4.4226102828979492 132.1058349609375 8.711787223815918
v 28.964292526245117 132.1058349609375 -25.512298583984375
v 17.055267333984375 132.1058349609375 -31.988971710205078
v -25.097454071044922 132.1058349609375 -54.913555145263672
v -51.217124938964844 132.1058349609375 -8.8329620361328125
v -43.971050262451172 132.1058349609375 -12.523484230041504
v -4.4226102828979492 132.1058349609375 8.711787223815918
v -43.971050262451172 132.1058349609375 -12.523484230041504
v -51.217124938964844 132.1058349609375 -8.8329620361328125
v -43.971050262451172 132.1058349609375 -12.523484230041504
v -21.157739639282227 132.1058349609375 -52.770957946777344
v -25.097454071044922 132.1058349609375 -54.913555145263672
v -13.478129386901855 193.16154479980469 -0.8998262882232666
v -38.311714172363281 193.16154479980469 -14.234053611755371
v -43.971050262451172 193.16154479980469 -12.523484230041504
v -21.157739639282227 193.16154479980469 -52.770957946777344
v -43.971050262451172 193.16154479980469 -12.523484230041504
v -38.311714172363281 193.16154479980469 -14.234053611755371
v 17.055267333984375 193.16154479980469 -31.988971710205078
v -13.478129386901855 193.16154479980469 -0.8998262882232666
v -4.4226102828979492 193.16154479980469 8.711787223815918
v -43.971050262451172 193.16154479980469 -12.523484230041504
v -4.4226102828979492 193.16154479980469 8.711787223815918
v -13.478129386901855 193.16154479980469 -0.8998262882232666
v -13.478129386901855 193.16154479980469 -0.8998262882232666
v 17.055267333984375 193.16154479980469 -31.988971710205078
v 5.9677619934082031 193.16154479980469 -38.018867492675781
v -21.157739639282227 193.16154479980469 -52.770957946777344
v -38.311714172363281 193.16154479980469 -14.234053611755371
v -17.573040008544922 193.16154479980469 -50.821434020996094
v -25.097454071044922 63.650455474853516 -54.913555145263672
v 17.055267333984375 132.1058349609375 -31.988971710205078
v 28.964292526245117 63.650455474853516 -25.512298583984375
v 17.055267333984375 132.1058349609375 -31.988971710205078
v 28.964292526245117 132.1058349609375 -25.512298583984375
v 28.964292526245117 63.650455474853516 -25.512298583984375
v 5.9677619934082031 193.16154479980469 -38.018867492675781
v 17.055267333984375 193.16154479980469 -31.988971710205078
v 17.055267333984375 132.1058349609375 -31.988971710205078
v 5.9677619934082031 248.88037109375 -38.018867492675781
v 5.9677619934082031 193.16154479980469 -38.018867492675781
v -17.573040008544922 193.16154479980469 -50.821434020996094
v -17.573040008544922 248.88037109375 -50.821434020996094
v 17.055267333984375 132.1058349609375 -31.988971710205078
v -21.157739639282227 132.1058349609375 -52.770957946777344
v -17.573040008544922 193.16154479980469 -50.821434020996094
v 5.9677619934082031 193.16154479980469 -38.018867492675781
v 28.964292526245117 0 -25.512298583984375
v -25.097454071044922 63.650455474853516 -54.913555145263672
v 28.964292526245117 63.650455474853516 -25.512298583984375
v -25.097454071044922 63.650455474853516 -54.913555145263672
v -25.097454071044922 132.1058349609375 -54.913555145263672
v -21.157739639282227 132.1058349609375 -52.770957946777344
v -25.097454071044922 63.650455474853516 -54.913555145263672
v -30.662565231323242 0 -57.940116882324219
v -30.662565231323242 63.650455474853516 -57.940116882324219
v -30.662565231323242 0 -57.940116882324219
v -25.097454071044922 63.650455474853516 -54.913555145263672
v 28.964292526245117 0 -25.512298583984375
v -21.157739639282227 132.1058349609375 -52.770957946777344
v -21.157739639282227 193.16154479980469 -52.770957946777344
v -17.573040008544922 193.16154479980469 -50.821434020996094
v -25.097454071044922 63.650455474853516 -54.913555145263672
v -21.157739639282227 132.1058349609375 -52.770957946777344
v 17.055267333984375 132.1058349609375 -31.988971710205078
vt 0.20321445167064667 0.84045404195785522
vt 0.37791857123374939 0.84045404195785522
vt 0.37791857123374939 0.97184312343597412
vt 0.20321445167064667 0.97184312343597412
vt 0.10159389674663544 0.91790390014648438
vt 0.10159389674663544 0.74319976568222046
vt 0.18997319042682648 0.74319976568222046
vt 0.18997319042682648 0.91790390014648438
vt 0.58836889266967773 0.38597658276557922
vt 0.76307302713394165 0.38597658276557922
vt 0.76307302713394165 0.51637744903564453
vt 0.58836889266967773 0.51637744903564453
vt 0.0043483898043632507 0.8765411376953125
vt 0.08835611492395401 0.74319976568222046
vt 0 0.7452239990234375
vt 0.08835611492395401 0.74319976568222046
vt 0.0043483898043632507 0.8765411376953125
vt 0.08835611492395401 0.87506550550460815
vt 0.38110584020614624 0.65858972072601318
vt 0.57107877731323242 0.65858972072601318
vt 0.57107877731323242 0.80288398265838623
vt 0.38110584020614624 0.80288398265838623
vt 0.58836889266967773 0.51784229278564453
vt 0.77980661392211914 0.51784229278564453
vt 0.77980661392211914 0.65712487697601318
vt 0.58836889266967773 0.65712487697601318
vt 0.38110584020614624 0.82367771863937378
vt 0.57107877731323242 0.82367771863937378
vt 0.57107877731323242 0.96873486042022705
vt 0.38110584020614624 0.96873486042022705
vt 0.39359137415885925 0.19060292840003967
vt 0.60823047161102295 0.19060292840003967
vt 0.60823047161102295 0.38451173901557922
vt 0.39359137415885925 0.38451173901557922
vt 0 0
vt 0.21463911235332489 0
vt 0.21463911235332489 0.16608050465583801
vt 0 0.16608050465583801
vt 0.57254362106323242 0.91843944787979126
vt 0.57254362106323242 0.82462668418884277
vt 0.78571790456771851 0.82462668418884277
vt 0.57254362106323242 0.9881737232208252
vt 0.57254362106323242 0.91843944787979126
vt 0.78571790456771851 0.9881737232208252
vt 0.78571790456771851 0.82462668418884277
vt 0.78571790456771851 0.9881737232208252
vt 0.57254362106323242 0.91843944787979126
vt 0.095678761601448059 0.68165558576583862
vt 0.0010308298515155911 0.68068557977676392
vt 0.095680579543113708 0.68147832155227661
vt 0 0.18054088950157166
vt 0.19957345724105835 0.18054088950157166
vt 0.19957345724105835 0.27486935257911682
vt 0 0.27486935257911682
vt 0 0.7252238392829895
vt 0 0.68205386400222778
vt 0.19957345724105835 0.68205386400222778
vt 0.19957345724105835 0.72540116310119629
vt 0 0.72540116310119629
vt 0 0.7252238392829895
vt 0.19957345724105835 0.72540116310119629
vt 0 0.28308239579200745
vt 0.19957345724105835 0.28308239579200745
vt 0.19957345724105835 0.37773528695106506
vt 0 0.37773528695106506
vt 0.39359137415885925 0
vt 0.59316480159759521 0
vt 0.59316480159759521 0.18913808465003967
vt 0.39359137415885925 0.18913808465003967
vt 0.38110584020614624 0.38597658276557922
vt 0.58067929744720459 0.38597658276557922
vt 0.58067929744720459 0.64456433057785034
vt 0.38110584020614624 0.64456433057785034
vt 0.19055292010307312 0.39034208655357361
vt 0.28560146689414978 0.60218632221221924
vt 0.37964099645614624 0.38597658276557922
vt 0.37964099645614624 0.64456433057785034
vt 0.37964099645614624 0.38597658276557922
vt 0.28560146689414978 0.60218632221221924
vt 0.19168113172054291 0.60315632820129395
vt 0.28560146689414978 0.60218632221221924
vt 0.19055292010307312 0.39034208655357361
vt 0.37964099645614624 0.64456433057785034
vt 0.28560146689414978 0.60218632221221924
vt 0.28604260087013245 0.6455312967300415
vt 0 0.39034208655357361
vt 0.18908807635307312 0.38597658276557922
vt 0.16486585140228271 0.4064006507396698
vt 0.16486585140228271 0.60177433490753174
vt 0.16486585140228271 0.4064006507396698
vt 0.18908807635307312 0.38597658276557922
vt 0.16486585140228271 0.4064006507396698
vt 0.00010530053987167776 0.41020452976226807
vt 0 0.39034208655357361
vt 0.095489673316478729 0.6455312967300415
vt 0.16486585140228271 0.60177433490753174
vt 0.18908807635307312 0.64456433057785034
vt 0.18908807635307312 0.38597658276557922
vt 0.18908807635307312 0.64456433057785034
vt 0.16486585140228271 0.60177433490753174
vt 0.16486585140228271 0.60177433490753174
vt 0.095489673316478729 0.6455312967300415
vt 0.095050349831581116 0.60236358642578125
vt 0.57254362106323242 0.82214009761810303
vt 0.61400908231735229 0.67934763431549072
vt 0.57392561435699463 0.65858972072601318
vt 0.76929926872253418 0.65858972072601318
vt 0.57392561435699463 0.65858972072601318
vt 0.61400908231735229 0.67934763431549072
vt 0.61400908231735229 0.67934763431549072
vt 0.57254362106323242 0.82214009761810303
vt 0.6150481104850769 0.8223651647567749
vt 0.7654954195022583 0.82316184043884277
vt 0.76929926872253418 0.65858972072601318
vt 0.75475651025772095 0.67934763431549072
vt 0.61400908231735229 0.67934763431549072
vt 0.75475651025772095 0.67934763431549072
vt 0.76929926872253418 0.65858972072601318
vt 0.75475651025772095 0.67934763431549072
vt 0.75143414735794067 0.82308733463287354
vt 0.7654954195022583 0.82316184043884277
vt 0.21865484118461609 0.78183406591415405
vt 0.21663060784339905 0.69347792863845825
vt 0.20321445167064667 0.68068557977676392
vt 0.34827163815498352 0.68068557977676392
vt 0.20321445167064667 0.68068557977676392
vt 0.21663060784339905 0.69347792863845825
vt 0.35066694021224976 0.81705254316329956
vt 0.21865484118461609 0.78183406591415405
vt 0.20643810927867889 0.8213961124420166
vt 0.20321445167064667 0.68068557977676392
vt 0.20643810927867889 0.8213961124420166
vt 0.21865484118461609 0.78183406591415405
vt 0.21865484118461609 0.78183406591415405
vt 0.35066694021224976 0.81705254316329956
vt 0.3499719500541687 0.77748566865921021
vt 0.34827163815498352 0.68068557977676392
vt 0.21663060784339905 0.69347792863845825
vt 0.34849631786346436 0.69347792863845825
vt 0.9788091778755188 0.19957347214221954
vt 0.82939529418945313 0.41421258449554443
vt 0.78718274831771851 0.19957347214221954
vt 0.82939529418945313 0.41421258449554443
vt 0.78718274831771851 0.41421258449554443
vt 0.78718274831771851 0.19957347214221954
vt 0.86869585514068604 0.60565030574798584
vt 0.82939529418945313 0.60565030574798584
vt 0.82939529418945313 0.41421258449554443
vt 0.86869585514068604 0.78035444021224976
vt 0.86869585514068604 0.60565030574798584
vt 0.95213824510574341 0.60565030574798584
vt 0.95213824510574341 0.78035444021224976
vt 0.82939529418945313 0.41421258449554443
vt 0.96484452486038208 0.41421258449554443
vt 0.95213824510574341 0.60565030574798584
vt 0.86869585514068604 0.60565030574798584
vt 0.78718274831771851 0
vt 0.9788091778755188 0.19957347214221954
vt 0.78718274831771851 0.19957347214221954
vt 0.9788091778755188 0.19957347214221954
vt 0.9788091778755188 0.41421258449554443
vt 0.96484452486038208 0.41421258449554443
vt 0.9788091778755188 0.19957347214221954
vt 0.99853515625 0
vt 0.99853515625 0.19957347214221954
vt 0.99853515625 0
vt 0.9788091778755188 0.19957347214221954
vt 0.78718274831771851 0
vt 0.96484452486038208 0.41421258449554443
vt 0.96484452486038208 0.60565030574798584
vt 0.95213824510574341 0.60565030574798584
vt 0.9788091778755188 0.19957347214221954
vt 0.96484452486038208 0.41421258449554443
vt 0.82939529418945313 0.41421258449554443
vn 0.88580620288848877 0 0.4640553891658783
vn 0.88580620288848877 0 0.4640553891658783
vn 0.88580620288848877 0 0.4640553891658783
vn 0.88580620288848877 0 0.4640553891658783
vn -0.47306257486343384 0 0.88102883100509644
vn -0.47306257486343384 0 0.88102883100509644
vn -0.47306257486343384 0 0.88102883100509644
vn -0.47306257486343384 0 0.88102883100509644
vn -0.86996275186538696 0 -0.49311739206314087
vn -0.86996275186538696 0 -0.49311739206314087
vn -0.86996275186538696 0 -0.49311739206314087
vn -0.86996275186538696 0 -0.49311739206314087
vn 0 1 0
vn 0 1 0
vn 0 1 0
vn 0 1 0
vn 0 1 0
vn 0 1 0
vn 0.88441234827041626 0 0.46670630574226379
vn 0.88441234827041626 0 0.46670630574226379
vn 0.88441234827041626 0 0.46670630574226379
vn 0.88441234827041626 0 0.46670630574226379
vn -0.47306257486343384 0 0.88102883100509644
vn -0.47306257486343384 0 0.88102883100509644
vn -0.47306257486343384 0 0.88102883100509644
vn -0.47306257486343384 0 0.88102883100509644
vn -0.86996275186538696 0 -0.49311739206314087
vn -0.86996275186538696 0 -0.49311739206314087
vn -0.86996275186538696 0 -0.49311739206314087
vn -0.86996275186538696 0 -0.49311739206314087
vn -0.47306257486343384 0 0.88102883100509644
vn -0.47306257486343384 0 0.88102883100509644
vn -0.47306257486343384 0 0.88102883100509644
vn -0.47306257486343384 0 0.88102883100509644
vn -0.86996275186538696 0 -0.49311739206314087
vn -0.86996275186538696 0 -0.49311739206314087
vn -0.86996275186538696 0 -0.49311739206314087
vn -0.86996275186538696 0 -0.49311739206314087
vn 0.87703585624694824 0 0.4804249107837677
vn 0.87703585624694824 0 0.4804249107837677
vn 0.87703585624694824 0 0.4804249107837677
vn 0.87703585624694824 0 0.4804249107837677
vn 0.87703585624694824 0 0.4804249107837677
vn 0.87703585624694824 0 0.4804249107837677
vn 0.87703585624694824 0 0.4804249107837677
vn 0.87703585624694824 0 0.4804249107837677
vn 0.87703585624694824 0 0.4804249107837677
vn 0 -1 0
vn 0 -1 0
vn 0 -1 0
vn 0.87613308429718018 0 0.48206931352615356
vn 0.87613308429718018 0 0.48206931352615356
vn 0.87613308429718018 0 0.48206931352615356
vn 0.87613308429718018 0 0.48206931352615356
vn 0.48207315802574158 0 -0.87613099813461304
vn 0.48207315802574158 0 -0.87613099813461304
vn 0.48207315802574158 0 -0.87613099813461304
vn 0.48207315802574158 0 -0.87613099813461304
vn 0.48207315802574158 0 -0.87613099813461304
vn 0.48207315802574158 0 -0.87613099813461304
vn 0.48207315802574158 0 -0.87613099813461304
vn 0.87613457441329956 0 0.48206660151481628
vn 0.87613457441329956 0 0.48206660151481628
vn 0.87613457441329956 0 0.48206660151481628
vn 0.87613457441329956 0 0.48206660151481628
vn -0.86996275186538696 0 -0.49311739206314087
vn -0.86996275186538696 0 -0.49311739206314087
vn -0.86996275186538696 0 -0.49311739206314087
vn -0.86996275186538696 0 -0.49311739206314087
vn -0.47306257486343384 0 0.88102883100509644
vn -0.47306257486343384 0 0.88102883100509644
vn -0.47306257486343384 0 0.88102883100509644
vn -0.47306257486343384 0 0.88102883100509644
vn 0 -1 0
vn 0 -1 0
vn 0 -1 0
vn 0 -1 0
vn 0 -1 0
vn 0 -1 0
vn 0 -1 0
vn 0 -1 0
vn 0 -1 0
vn 0 -1 0
vn 0 -1 0
vn 0 -1 0
vn 0 1 0
vn 0 1 0
vn 0 1 0
vn 0 1 0
vn 0 1 0
vn 0 1 0
vn 0 1 0
vn 0 1 0
vn 0 1 0
vn 0 1 0
vn 0 1 0
vn 0 1 0
vn 0 1 0
vn 0 1 0
vn 0 1 0
vn 0 1 0
vn 0 1 0
vn 0 1 0
vn 0 1 0
vn 0 1 0
vn 0 1 0
vn 0 1 0
vn 0 1 0
vn 0 1 0
vn 0 1 0
vn 0 1 0
vn 0 1 0
vn 0 1 0
vn 0 1 0
vn 0 1 0
vn 0 1 0
vn 0 1 0
vn 0 1 0
vn 0 1 0
vn 0 1 0
vn 0 1 0
vn 0 1 0
vn 0 1 0
vn 0 1 0
vn 0 1 0
vn 0 1 0
vn 0 1 0
vn 0 1 0
vn 0 1 0
vn 0 1 0
vn 0 1 0
vn 0 1 0
vn 0 1 0
vn 0 1 0
vn 0 1 0
vn 0 1 0
vn 0 1 0
vn 0 1 0
vn 0 1 0
vn 0.47776257991790771 0 -0.87848901748657227
vn 0.47776257991790771 0 -0.87848901748657227
vn 0.47776257991790771 0 -0.87848901748657227
vn 0.47776257991790771 0 -0.87848901748657227
vn 0.47776257991790771 0 -0.87848901748657227
vn 0.47776257991790771 0 -0.87848901748657227
vn 0.47776257991790771 0 -0.87848901748657227
vn 0.47776257991790771 0 -0.87848901748657227
vn 0.47776257991790771 0 -0.87848901748657227
vn 0.47776257991790771 0 -0.87848901748657227
vn 0.47776257991790771 0 -0.87848901748657227
vn 0.47776257991790771 0 -0.87848901748657227
vn 0.47776257991790771 0 -0.87848901748657227
vn 0.47776257991790771 0 -0.87848901748657227
vn 0.47776257991790771 0 -0.87848901748657227
vn 0.47776257991790771 0 -0.87848901748657227
vn 0.47776257991790771 0 -0.87848901748657227
vn 0.47776257991790771 0 -0.87848901748657227
vn 0.47776257991790771 0 -0.87848901748657227
vn 0.47776257991790771 0 -0.87848901748657227
vn 0.47776257991790771 0 -0.87848901748657227
vn 0.47776257991790771 0 -0.87848901748657227
vn 0.47776257991790771 0 -0.87848901748657227
vn 0.47776257991790771 0 -0.87848901748657227
vn 0.47776257991790771 0 -0.87848901748657227
vn 0.47776257991790771 0 -0.87848901748657227
vn 0.47776257991790771 0 -0.87848901748657227
vn 0.47776257991790771 0 -0.87848901748657227
vn 0.47776257991790771 0 -0.87848901748657227
vn 0.47776257991790771 0 -0.87848901748657227
vn 0.47776257991790771 0 -0.87848901748657227
vn 0.47776257991790771 0 -0.87848901748657227
vn 0.47776257991790771 0 -0.87848901748657227
vn 0.47776257991790771 0 -0.87848901748657227
vn 0.47776257991790771 0 -0.87848901748657227
f 1/1/1 2/2/2 3/3/3 4/4/4
f 5/5/5 6/6/6 7/7/7 8/8/8
f 9/9/9 10/10/10 11/11/11 12/12/12
f 13/13/13 14/14/14 15/15/15
f 16/16/16 17/17/17 18/18/18
f 19/19/19 20/20/20 21/21/21 22/22/22
f 23/23/23 24/24/24 25/25/25 26/26/26
f 27/27/27 28/28/28 29/29/29 30/30/30
f 31/31/31 32/32/32 33/33/33 34/34/34
f 35/35/35 36/36/36 37/37/37 38/38/38
f 39/39/39 40/40/40 41/41/41
f 42/42/42 43/43/43 44/44/44
f 45/45/45 46/46/46 47/47/47
f 48/48/48 49/49/49 50/50/50
f 51/51/51 52/52/52 53/53/53 54/54/54
f 55/55/55 56/56/56 57/57/57 58/58/58
f 59/59/59 60/60/60 61/61/61
f 62/62/62 63/63/63 64/64/64 65/65/65
f 66/66/66 67/67/67 68/68/68 69/69/69
f 70/70/70 71/71/71 72/72/72 73/73/73
f 74/74/74 75/75/75 76/76/76
f 77/77/77 78/78/78 79/79/79
f 80/80/80 81/81/81 82/82/82
f 83/83/83 84/84/84 85/85/85
f 86/86/86 87/87/87 88/88/88
f 89/89/89 90/90/90 91/91/91
f 92/92/92 93/93/93 94/94/94
f 95/95/95 96/96/96 97/97/97
f 98/98/98 99/99/99 100/100/100
f 101/101/101 102/102/102 103/103/103
f 104/104/104 105/105/105 106/106/106
f 107/107/107 108/108/108 109/109/109
f 110/110/110 111/111/111 112/112/112
f 113/113/113 114/114/114 115/115/115
f 116/116/116 117/117/117 118/118/118
f 119/119/119 120/120/120 121/121/121
f 122/122/122 123/123/123 124/124/124
f 125/125/125 126/126/126 127/127/127
f 128/128/128 129/129/129 130/130/130
f 131/131/131 132/132/132 133/133/133
f 134/134/134 135/135/135 136/136/136
f 137/137/137 138/138/138 139/139/139
f 140/140/140 141/141/141 142/142/142
f 143/143/143 144/144/144 145/145/145
f 146/146/146 147/147/147 148/148/148
f 149/149/149 150/150/150 151/151/151 152/152/152
f 153/153/153 154/154/154 155/155/155 156/156/156
f 157/157/157 158/158/158 159/159/159
f 160/160/160 161/161/161 162/162/162
f 163/163/163 164/164/164 165/165/165
f 166/166/166 167/167/167 168/168/168
f 169/169/169 170/170/170 171/171/171
f 172/172/172 173/173/173 174/174/174
